<?xml version="1.0" encoding="utf-8"?>
<!-- Generator: Adobe Illustrator 22.1.0, SVG Export Plug-In . SVG Version: 6.00 Build 0)  -->
<svg version="1.1" id="Layer_1" xmlns="http://www.w3.org/2000/svg" xmlns:xlink="http://www.w3.org/1999/xlink" x="0px" y="0px"
	 viewBox="0 0 1116.9 1116.9" style="enable-background:new 0 0 1116.9 1116.9;" xml:space="preserve">
<style type="text/css">
	.st0{fill:#5C4FA1;}
	.st1{fill:#FFFFFF;}
</style>
<path class="st0" d="M933,342.8c-7.6-13.2-18.6-24.4-32.2-32.2L603.4,138.9c-13.6-7.9-28.8-11.8-44-11.8s-30.4,3.9-44,11.8
	L218,310.5c-13.6,7.9-24.6,19.1-32.2,32.2c-7.6,13.2-11.8,28.3-11.8,44v343.3c0,15.7,4.2,30.9,11.8,44s18.6,24.4,32.2,32.2
	l297.3,171.7c13.6,7.9,28.8,11.8,44,11.8s30.4-3.9,44-11.8l297.3-171.7c13.6-7.9,24.6-19.1,32.2-32.2c7.6-13.2,11.8-28.3,11.8-44
	V386.8C944.8,371.1,940.6,355.9,933,342.8z"/>
<circle class="st1" cx="561" cy="558.5" r="281"/>
<path class="st0" d="M362.6,526.6l158.4,196c29.8,36.9,88.2,28.1,105.9-15.9l138.5-345.1c21.3-53-34.4-104.2-85.4-78.6L383,432.1
	C347.7,449.9,337.7,495.8,362.6,526.6z"/>
<path class="st1" d="M417.8,465.4l107.4,133c20.2,25,59.8,19.1,71.8-10.8l93.9-234c14.4-36-23.3-70.7-58-53.3L431.7,401.4
	C407.7,413.4,400.9,444.6,417.8,465.4z"/>
</svg>
